<?xml version="1.0" encoding="UTF-8" standalone="no"?>
<!-- Created with Inkscape (http://www.inkscape.org/) -->

<svg
   xmlns:dc="http://purl.org/dc/elements/1.1/"
   xmlns:cc="http://creativecommons.org/ns#"
   xmlns:rdf="http://www.w3.org/1999/02/22-rdf-syntax-ns#"
   xmlns:svg="http://www.w3.org/2000/svg"
   xmlns="http://www.w3.org/2000/svg"
   xmlns:sodipodi="http://sodipodi.sourceforge.net/DTD/sodipodi-0.dtd"
   xmlns:inkscape="http://www.inkscape.org/namespaces/inkscape"
   width="196mm"
   height="130mm"
   viewBox="0 0 196 130"
   version="1.1"
   id="svg8"
   inkscape:version="0.92.2 (5c3e80d, 2017-08-06)"
   sodipodi:docname="Panel Graphics.svg"
   inkscape:export-filename="C:\Users\Kyle\Google Drive\Electronics Projects\GRT EFIS Disection\CAD - Beaglebone Version\Panel Graphics.png"
   inkscape:export-xdpi="600.01019"
   inkscape:export-ydpi="600.01019">
  <defs
     id="defs2">
    <filter
       style="color-interpolation-filters:sRGB"
       id="filter3019"
       inkscape:label="Colorize"
       inkscape:menu="Color"
       inkscape:menu-tooltip="Blend image or object with a flood color and set lightness and contrast"
       x="0"
       y="0"
       width="1"
       height="1">
      <feColorMatrix
         id="feColorMatrix3021"
         values="1"
         in="SourceGraphic"
         type="saturate"
         result="result2" />
      <feFlood
         id="feFlood3023"
         flood-color="rgb(254,102,0)"
         flood-opacity="1"
         result="result1" />
      <feBlend
         id="feBlend3025"
         in2="result2"
         mode="multiply"
         in="result1"
         result="result3" />
      <feComposite
         id="feComposite3027"
         in2="SourceGraphic"
         operator="in"
         result="result4" />
    </filter>
  </defs>
  <sodipodi:namedview
     id="base"
     pagecolor="#ffffff"
     bordercolor="#666666"
     borderopacity="1.0"
     inkscape:pageopacity="0.0"
     inkscape:pageshadow="2"
     inkscape:zoom="1.4"
     inkscape:cx="306.74035"
     inkscape:cy="230.94157"
     inkscape:document-units="mm"
     inkscape:current-layer="layer1"
     showgrid="false"
     inkscape:window-width="1920"
     inkscape:window-height="1017"
     inkscape:window-x="1912"
     inkscape:window-y="-8"
     inkscape:window-maximized="1" />
  <metadata
     id="metadata5">
    <rdf:RDF>
      <cc:Work
         rdf:about="">
        <dc:format>image/svg+xml</dc:format>
        <dc:type
           rdf:resource="http://purl.org/dc/dcmitype/StillImage" />
        <dc:title></dc:title>
      </cc:Work>
    </rdf:RDF>
  </metadata>
  <g
     inkscape:label="Layer 1"
     inkscape:groupmode="layer"
     id="layer1"
     transform="translate(0,-167)">
    <rect
       style="fill:#000000;fill-opacity:1;stroke:#000000;stroke-width:0;stroke-miterlimit:4;stroke-dasharray:none;stroke-opacity:1"
       id="rect4504"
       width="196"
       height="130"
       x="5e-007"
       y="167" />
    <rect
       style="fill:#ffffff;fill-opacity:1;stroke:#000000;stroke-width:0;stroke-linejoin:round;stroke-miterlimit:4;stroke-dasharray:none;stroke-opacity:1"
       id="rect4506"
       width="153"
       height="85"
       x="21.5"
       y="187.25"
       rx="1.4806452"
       ry="1.4655173" />
    <path
       style="fill:#ff0000;filter:url(#filter3019)"
       d="m 98.47292,788.74999 c 0.28089,-1.2375 3.91633,-20.20269 8.07875,-42.14486 6.0898,-32.10228 7.52626,-41.47581 7.3541,-47.98867 l -0.21395,-8.09381 4.40424,-0.73406 c 2.42233,-0.40373 5.41674,-0.9799 6.65424,-1.28038 1.98393,-0.48172 2.25181,-0.15975 2.26531,2.72273 0.0228,4.86105 1.23514,6.25477 3.37962,3.88515 2.297,-2.53816 10.43909,-5.99455 15.87689,-6.73988 5.546,-0.76016 16.07316,1.88679 20.28725,5.10104 1.74469,1.33074 4.21933,4.58024 5.4992,7.22113 1.96449,4.05352 2.32514,6.3596 2.31484,14.80161 -0.0193,15.78739 -4.00796,26.19616 -13.82892,36.08751 -7.76463,7.82028 -14.58523,10.6477 -26.04419,10.7964 -6.39678,0.083 -8.89087,-0.34011 -12.44543,-2.11129 -2.44499,-1.2183 -4.50278,-2.11553 -4.57287,-1.99385 -0.0701,0.12168 -0.85626,4.49623 -1.74704,9.72123 -0.89079,5.225 -2.14169,12.5375 -2.77979,16.25 l -1.16018,6.75 h -6.9164 c -6.65721,0 -6.89725,-0.0843 -6.40567,-2.25 z m 43.65525,-38.2779 c 6.61308,-2.25331 11.37023,-6.70716 14.96658,-14.0124 2.68921,-5.46255 3.26063,-7.92013 3.67253,-15.79482 0.56067,-10.7189 -0.87489,-15.1814 -6.07487,-18.88412 -4.53043,-3.22595 -13.29359,-3.63619 -18.97042,-0.88808 -8.0163,3.88063 -8.57062,5.01549 -12.35003,25.28451 -1.87909,10.07754 -3.29393,19.22281 -3.14409,20.32281 0.65865,4.83534 12.86789,7.04975 21.9003,3.9721 z M 40.0003,762.06823 C 31.33429,760.33066 22.73983,753.18671 18.91606,744.54245 11.82772,728.51808 15.41664,701.29811 26.93422,683.72912 38.2625,666.4489 53.90665,658.87481 72.0735,661.875 c 13.18931,2.17817 20.72736,7.91598 25.12545,19.12499 3.03475,7.73439 2.99761,26.92141 -0.0745,38.5 -6.15965,23.21515 -19.82576,37.99849 -38.85432,42.03072 -7.18746,1.52306 -12.56537,1.68128 -18.26981,0.53752 z m 22.09986,-13.85634 c 13.49935,-6.58831 22.63799,-24.0666 23.63934,-45.2119 0.75362,-15.91385 -2.13033,-23.37695 -10.74727,-27.8119 -3.72283,-1.91606 -5.69045,-2.25134 -11.49193,-1.95825 -8.45517,0.42717 -13.02923,2.47888 -18.9776,8.51248 -5.38133,5.45843 -11.87852,18.26283 -14.08475,27.75767 -3.88711,16.72872 -0.0605,33.55223 8.87705,39.028 3.63645,2.22794 5.10327,2.52254 11.1853,2.24652 4.6964,-0.21314 8.51375,-1.05646 11.59986,-2.56262 z m 143.22654,13.74372 c -11.35659,-2.24554 -17.3329,-9.39421 -19.49842,-23.3234 -4.38651,-28.21515 18.13152,-53.34635 44.9958,-50.21747 14.76612,1.71982 21.96804,10.0007 19.25217,22.13649 -2.26279,10.11118 -12.11173,17.39264 -26.56463,19.63958 -7.35012,1.1427 -9.56057,0.95862 -21.88206,-1.82223 l -2.87074,-0.64791 0.39057,6.91204 c 0.29689,5.25428 0.96167,7.71409 2.77181,10.25619 5.0403,7.07845 17.03535,9.20733 26.6507,4.72998 l 5.07161,-2.36158 -0.4345,5.62135 c -0.23898,3.09174 -0.7212,5.92389 -1.07161,6.29367 -0.97315,1.02695 -15.61995,3.84207 -19.34494,3.7181 -1.81069,-0.0603 -5.17028,-0.48092 -7.46576,-0.93481 z m 21.65662,-43.54322 c 6.89144,-2.04654 11.01698,-6.06262 11.01698,-10.72469 0,-5.92284 -2.67231,-8.05182 -10.62967,-8.46847 -5.98296,-0.31327 -7.5779,0.005 -12.3486,2.46051 -3.61903,1.8631 -6.58356,4.38102 -8.735,7.41906 -4.2313,5.975 -4.62336,9.01575 -1.28673,9.97963 4.54092,1.31178 16.54801,0.94799 21.98302,-0.66604 z m 162.47795,43.26157 c -3.32147,-0.69111 -7.44191,-1.83765 -9.15653,-2.54787 l -3.1175,-1.29131 2.01979,-5.98092 c 1.62391,-4.80866 2.34059,-5.84055 3.65653,-5.26472 10.93571,4.78525 21.15142,5.74813 27.15234,2.55924 5.62096,-2.98698 8.24152,-7.66385 7.74718,-13.82625 -0.52904,-6.59496 -3.37533,-10.41153 -13.55239,-18.17234 -16.79129,-12.80465 -20.85661,-20.1959 -18.39337,-33.44134 2.90956,-15.64536 16.84006,-24.10281 36.73142,-22.3003 4.05436,0.3674 8.68314,1.12521 10.28618,1.68403 l 2.91462,1.01605 -1.48846,5.19588 c -0.81866,2.85773 -1.80595,5.5421 -2.19399,5.96525 -0.38804,0.42315 -2.64339,0.0856 -5.01189,-0.75 -13.96434,-4.9269 -28.04742,1.59089 -28.04742,12.98063 0,5.77572 2.70832,9.43529 13.192,17.82547 11.72342,9.38236 14.14237,11.97112 16.9823,18.17453 3.13071,6.83856 3.15121,18.17294 0.0437,24.14255 -2.78442,5.34888 -9.22895,10.8286 -15.09203,12.8326 -6.35335,2.17158 -17.41436,2.70903 -24.67244,1.19882 z m 74.53903,0.70319 c -16.17715,-3.04241 -23.92011,-18.01678 -19.66695,-38.03454 2.96809,-13.96945 11.09382,-25.99148 21.33529,-31.56559 14.51185,-7.89834 33.45543,-5.10263 40.81872,6.02406 6.48351,9.79724 5.00913,30.91076 -3.13142,44.84276 -3.3851,5.79339 -11.45306,13.05358 -17.66753,15.89866 -5.21309,2.38663 -16.33853,3.84073 -21.68811,2.83465 z m 19.71281,-14.01433 c 7.93637,-6.38547 12.28437,-15.86974 13.033,-28.42877 0.86862,-14.57185 -3.7469,-20.93406 -15.18678,-20.93406 -7.68683,0 -15.67814,5.52829 -19.95966,13.80784 -3.9832,7.70265 -5.87439,23.6968 -3.53276,29.87706 1.27186,3.35681 4.66182,7.19412 7.43339,8.41434 1.1,0.48429 4.79576,0.75232 8.21281,0.59562 5.19058,-0.23803 6.83593,-0.78627 10,-3.33203 z m 47.76214,13.64097 c -5.02256,-1.56801 -9.35492,-6.90504 -10.60561,-13.06503 -0.99167,-4.88422 -0.63345,-8.15994 3.5132,-32.12693 2.5396,-14.67848 4.61746,-26.94098 4.61746,-27.25 0,-0.30901 2.93357,-0.56184 6.51905,-0.56184 6.24544,0 6.49758,0.0944 6.00737,2.25 -2.30884,10.1526 -8.23282,49.93112 -7.81963,52.50754 2.06601,12.88253 25.07601,10.0016 32.17857,-4.02887 1.36463,-2.69571 3.40857,-11.66022 5.6382,-24.72867 1.92366,-11.275 3.75356,-21.7375 4.06645,-23.25 0.55512,-2.68337 0.73822,-2.75 7.55683,-2.75 6.187,0 6.92822,0.20058 6.4669,1.75 -0.54241,1.82175 -12.61374,69.34729 -12.61374,70.55967 0,0.37968 -3.18032,0.69033 -7.06739,0.69033 -6.25188,0 -7.01053,-0.20193 -6.57465,-1.75 0.271,-0.9625 0.80858,-3.325 1.19462,-5.25 l 0.70189,-3.5 -2.87723,2.89862 c -4.53717,4.57089 -12.0503,7.53521 -20.46502,8.07452 -4.07672,0.26128 -8.77349,0.0501 -10.43727,-0.46934 z m 142.85145,0.0149 c -5.8899,-1.25364 -9.52623,-3.34334 -13.30305,-7.6449 -5.30617,-6.04339 -6.41344,-9.6734 -6.36719,-20.87381 0.0838,-20.29601 8.59031,-34.65736 25.00795,-42.2204 4.96174,-2.2857 7.18398,-2.68867 14.83589,-2.69027 6.09974,-10e-4 10.1727,0.5166 12.63909,1.60703 l 3.63908,1.6089 -0.89023,4.76518 c -0.48963,2.62086 -1.04563,4.92058 -1.23555,5.1105 -0.18992,0.18992 -2.10062,-0.3881 -4.246,-1.2845 -4.70583,-1.96622 -15.36503,-1.50752 -19.91436,0.85698 -4.75949,2.47374 -10.29812,8.64371 -13.12686,14.62318 -3.77452,7.97867 -4.47225,20.20504 -1.50307,26.33853 4.6038,9.51019 14.24219,12.24575 26.17051,7.42769 3.50373,-1.41522 6.44818,-2.47631 6.54323,-2.35797 0.095,0.11833 -0.0494,2.77866 -0.32093,5.91183 l -0.49373,5.69669 -4.63059,1.58274 c -5.71421,1.95313 -17.21902,2.73137 -22.80419,1.5426 z m 65,-0.0631 c -11.35659,-2.24554 -17.3329,-9.39421 -19.49842,-23.3234 -4.38651,-28.21515 18.13152,-53.34635 44.9958,-50.21747 14.76612,1.71982 21.96804,10.0007 19.25217,22.13649 -2.26279,10.11118 -12.11173,17.39264 -26.56463,19.63958 -7.35012,1.1427 -9.56057,0.95862 -21.88206,-1.82223 l -2.87074,-0.64791 0.39057,6.91204 c 0.29689,5.25428 0.96167,7.71409 2.77181,10.25619 5.0403,7.07845 17.03535,9.20733 26.6507,4.72998 l 5.07161,-2.36158 -0.4345,5.62135 c -0.23898,3.09174 -0.7212,5.92389 -1.07161,6.29367 -0.97315,1.02695 -15.61995,3.84207 -19.34494,3.7181 -1.81069,-0.0603 -5.17028,-0.48092 -7.46576,-0.93481 z m 21.65662,-43.5432 c 6.89144,-2.04654 11.01698,-6.06262 11.01698,-10.72469 0,-5.92284 -2.67231,-8.05182 -10.62967,-8.46847 -5.98296,-0.31327 -7.5779,0.005 -12.3486,2.46051 -3.61903,1.8631 -6.58356,4.38102 -8.735,7.41906 -4.2313,5.975 -4.62336,9.01575 -1.28673,9.97963 4.54092,1.31178 16.54801,0.94799 21.98302,-0.66604 z m 155.5924,10.3376 c -5.3389,-18.8375 -10.1041,-35.4875 -10.5893,-37 l -0.8821,-2.75 h 6.8278 6.8278 l 5.7615,23.25 c 3.1688,12.7875 6.0808,23.86167 6.4711,24.60927 0.9005,1.725 1.7413,0.32461 15.9762,-26.60927 l 11.2309,-21.25 h 6.9003 c 3.7952,0 6.9004,0.30758 6.9004,0.68351 0,1.78817 -43.39,73.31649 -44.4747,73.31649 -0.7771,0 -4.8797,-12.8326 -10.9499,-34.25 z m 112.76478,33.34895 c -11.7557,-3.01148 -17.4931,-13.50936 -15.8366,-28.97708 1.8894,-17.64274 11.8653,-34.11822 24.6172,-40.65568 10.1903,-5.22425 29.0239,-5.49401 38.7063,-0.5544 l 3.9097,1.99458 -4.4409,21.79681 c -3.9404,19.34037 -4.3866,22.86745 -3.9589,31.29682 0.2651,5.225 0.9616,10.7375 1.5478,12.25 l 1.0657,2.75 h -6.8977 -6.8977 l -1.1585,-3.51042 -1.1586,-3.51043 -2.8529,2.03148 c -6.1026,4.34539 -19.533,6.91017 -26.6449,5.08832 z m 17.3019,-11.7334 c 4.1903,-1.98845 9.5725,-8.36452 12.1539,-14.39823 3.1783,-7.42915 8.6392,-33.93214 7.2731,-35.29825 -0.6371,-0.63706 -4.6257,-1.30676 -8.8637,-1.48823 -6.6065,-0.28288 -8.3472,0.0127 -12.2054,2.07296 -5.7625,3.07703 -12.1763,10.94703 -14.9975,18.40253 -2.7804,7.34771 -3.8329,20.92481 -1.9706,25.42074 2.6048,6.28857 11.2972,8.7587 18.6102,5.28848 z m 57.6908,11.6049 c -4.0694,-1.26521 -7.9713,-5.9283 -9.4269,-11.26592 -1.0099,-3.70355 -0.6363,-6.82586 3.1354,-26.20453 2.355,-12.1 4.4866,-22.7875 4.7369,-23.75 0.3831,-1.47364 -0.2514,-1.75 -4.0178,-1.75 h -4.4727 l 0.9788,-4.95022 0.9787,-4.95022 4.5733,-0.29978 4.5732,-0.29978 1.2393,-6.74064 c 0.6816,-3.70736 1.4796,-7.12952 1.7734,-7.60481 0.7163,-1.15907 12.6211,-5.46225 13.2823,-4.8011 0.2867,0.28668 -0.4256,4.63343 -1.5828,9.65943 -1.1572,5.026 -2.104,9.32919 -2.104,9.56265 0,0.23346 4.4353,0.42447 9.8561,0.42447 h 9.8561 l -0.9886,5 -0.9886,5 h -9.6372 -9.6372 l -2.8936,13.25 c -6.3625,29.13422 -6.4417,29.61976 -5.433,33.27301 1.4046,5.08729 4.6353,6.82053 11.6231,6.23569 3.1586,-0.26436 6.5304,-0.81636 7.4929,-1.22667 1.5347,-0.65423 1.75,-0.12202 1.75,4.3258 0,4.00295 -0.4105,5.29148 -1.9477,6.11418 -2.7453,1.46923 -18.919,2.18001 -22.7194,0.99844 z m 104.6671,0.40671 c -16.1772,-3.04241 -23.9201,-18.01678 -19.6669,-38.03454 2.968,-13.96945 11.0938,-25.99148 21.3352,-31.56559 14.5119,-7.89834 33.4555,-5.10263 40.8188,6.02406 6.4835,9.79724 5.0091,30.91076 -3.1315,44.84276 -3.3851,5.79339 -11.453,13.05358 -17.6675,15.89866 -5.2131,2.38663 -16.3385,3.84073 -21.6881,2.83465 z m 19.7128,-14.01433 c 7.9364,-6.38547 12.2844,-15.86974 13.033,-28.42877 0.8686,-14.57185 -3.7469,-20.93406 -15.1868,-20.93406 -7.6868,0 -15.6781,5.52829 -19.9596,13.80784 -3.9832,7.70265 -5.8744,23.6968 -3.5328,29.87706 1.2719,3.35681 4.6618,7.19412 7.4334,8.41434 1.1,0.48429 4.7958,0.75232 8.2128,0.59562 5.1906,-0.23803 6.8359,-0.78627 10,-3.33203 z m -969.30752,10.88717 c 0.3103,-1.5125 2.40049,-13.775 4.64486,-27.25 3.02796,-18.17961 4.00798,-26.68396 3.79888,-32.96579 l -0.28179,-8.46578 5.69786,-1.14141 5.69787,-1.1414 0.60584,3.60719 c 1.24636,7.4209 1.25998,7.43226 4.73966,3.95258 5.05125,-5.05126 10.98599,-7.18831 20.19154,-7.27085 9.14654,-0.082 13.44797,1.74062 17.18095,7.27999 4.0807,6.05535 3.9318,11.43493 -1.08746,39.28772 -2.52642,14.01956 -4.59349,25.79783 -4.59349,26.17393 0,0.3761 -2.925,0.68382 -6.5,0.68382 -3.575,0 -6.49384,-0.3375 -6.4863,-0.75 0.008,-0.4125 1.80639,-10.65 3.99747,-22.75 4.72333,-26.08412 5.00463,-32.20754 1.65827,-36.09791 -4.81959,-5.60311 -19.1978,-3.71021 -25.98142,3.42048 -2.27354,2.38986 -3.03802,5.48618 -7.11757,28.8281 -2.51375,14.38286 -4.57045,26.42036 -4.57045,26.75 0,0.32963 -2.73575,0.59933 -6.07946,0.59933 h -6.07945 z m 336.98098,1 c 0.54241,-1.82175 12.61374,-69.34729 12.61374,-70.55967 0,-0.37968 2.84121,-0.69033 6.31381,-0.69033 h 6.31381 l -0.44469,6.14775 -0.44469,6.14774 3.81267,-4.22016 c 6.06521,-6.71346 13.87176,-9.85551 21.34814,-8.59239 l 3.85559,0.6514 -1.60492,5.98994 c -1.41419,5.27805 -1.84529,5.91024 -3.62732,5.31931 -3.55642,-1.17931 -9.46254,-1.67543 -12.09124,-1.01567 -3.52844,0.88558 -11.18352,8.16635 -13.63167,12.96511 -1.64653,3.22748 -9.70111,43.05013 -9.78073,48.35697 -0.0131,0.87121 -2.00891,1.25 -6.58615,1.25 -5.78648,0 -6.50543,-0.20809 -6.04635,-1.75 z m 226.61376,1.10276 c 0,-0.35599 12.8675,-23.08099 28.5944,-50.5 22.0019,-38.35902 29.0338,-49.85276 30.5,-49.85276 1.0481,0 1.9056,0.2539 1.9056,0.56422 0,0.63176 17.781,95.93997 18.4111,98.68578 0.3561,1.55146 -0.4836,1.75 -7.4014,1.75 h -7.8031 l -1.1811,-8.75 c -0.6496,-4.8125 -1.4014,-9.5375 -1.6707,-10.5 -0.4427,-1.58227 -2.1852,-1.75 -18.1815,-1.75 h -17.692 l -5.8165,10.5 -5.8165,10.5 h -6.9242 c -3.8083,0 -6.9241,-0.29126 -6.9241,-0.64724 z m 59.61,-33.10276 c -0.3018,-1.5125 -1.497,-10.175 -2.6558,-19.25 -1.1589,-9.075 -2.4414,-17.36793 -2.85,-18.42874 -0.5867,-1.5231 -2.1785,0.79037 -7.5684,11 -3.754,7.11081 -8.8262,16.64124 -11.2714,21.17874 l -4.4459,8.25 h 14.6702 14.6702 z m 93.869,31.5 c 0.956,-4.15946 10.5155,-58.23608 10.5183,-59.5 0,-0.82773 -1.6279,-1.25 -4.8241,-1.25 h -4.8267 l 1.0242,-5 1.0242,-5 h 11.37 c 10.36028,0 11.32358,0.15539 10.84878,1.75 -0.5424,1.82175 -12.61368,69.34729 -12.61368,70.55967 0,0.37968 -2.9336,0.69033 -6.5191,0.69033 -6.247,0 -6.4974,-0.0939 -6.0019,-2.25 z m 173.99998,0 c 0.956,-4.15946 10.5156,-58.23608 10.5183,-59.5 0,-0.82773 -1.6279,-1.25 -4.8241,-1.25 h -4.8267 l 1.0242,-5 1.0243,-5 h 11.3699 c 10.3603,0 11.3236,0.15539 10.8488,1.75 -0.5424,1.82175 -12.6137,69.34729 -12.6137,70.55967 0,0.37968 -2.9336,0.69033 -6.5191,0.69033 -6.247,0 -6.4974,-0.0939 -6.0019,-2.25 z m 113.9263,-0.5 c 0.3103,-1.5125 2.4005,-13.775 4.6448,-27.25 3.028,-18.17961 4.008,-26.68396 3.7989,-32.96579 l -0.2818,-8.46578 5.6979,-1.14141 5.6979,-1.1414 0.6058,3.60719 c 1.2464,7.4209 1.26,7.43226 4.7397,3.95258 5.0512,-5.05126 10.9859,-7.18831 20.1915,-7.27085 9.1465,-0.082 13.448,1.74062 17.181,7.27999 4.0807,6.05535 3.9318,11.43493 -1.0875,39.28772 -2.5264,14.01956 -4.5935,25.79783 -4.5935,26.17393 0,0.3761 -2.925,0.68382 -6.5,0.68382 -3.575,0 -6.4938,-0.3375 -6.4863,-0.75 0.01,-0.4125 1.8064,-10.65 3.9975,-22.75 4.7233,-26.08412 5.0046,-32.20754 1.6582,-36.09791 -4.8196,-5.60311 -19.1978,-3.71021 -25.9814,3.42048 -2.2735,2.38986 -3.038,5.48618 -7.1175,28.8281 -2.5138,14.38286 -4.5705,26.42036 -4.5705,26.75 0,0.32963 -2.7358,0.59933 -6.0795,0.59933 h -6.0794 z M 993.00032,676.74658 c -5.23,-2.73028 -6.2272,-10.421 -1.8635,-14.37017 2.9179,-2.64063 9.25418,-2.4302 12.08568,0.40136 2.9327,2.93263 3.0657,9.3788 0.2516,12.19286 -2.6007,2.60072 -7.35098,3.40618 -10.47378,1.77595 z m 173.99998,0 c -5.2299,-2.73028 -6.2272,-10.421 -1.8634,-14.37017 2.9178,-2.64063 9.2541,-2.4302 12.0856,0.40136 2.9327,2.93263 3.0657,9.3788 0.2516,12.19286 -2.6007,2.60072 -7.351,3.40618 -10.4738,1.77595 z M 3e-4,570.7984 V 546.59681 L 4.87692,536.5484 c 2.68213,-5.52662 6.77817,-14.77341 9.1023,-20.54841 2.32414,-5.775 4.60945,-11.4 5.07847,-12.5 1.08986,-2.55603 5.09849,-14.96378 7.75379,-24 1.82461,-6.20932 2.83108,-10.03044 6.1898,-23.5 3.41498,-13.69517 6.62964,-30.8341 10.97256,-58.5 1.02773,-6.54704 2.22665,-16.58742 3.52258,-29.5 0.30359,-3.025 0.97459,-9.1 1.49111,-13.5 1.63085,-13.89258 2.97005,-27.43524 4.54883,-46 0.84191,-9.9 1.96571,-21.85548 2.49734,-26.56772 0.53163,-4.71225 0.9666,-10.68589 0.9666,-13.27476 0,-5.73555 1.13443,-6.34918 13.25456,-7.16966 4.53499,-0.307 10.38294,-0.78286 12.99544,-1.05747 l 4.75,-0.49928 -0.005,11.28445 c -0.004,10.67615 -0.63732,22.89674 -3.04454,58.78444 -2.18116,32.51754 -6.58704,70.38777 -10.87794,93.5 -4.98486,26.85011 -6.25244,33.50513 -7.04736,37 -0.50041,2.2 -1.36846,6.025 -1.92901,8.5 -4.40316,19.44126 -4.60062,20.19691 -10.5828,40.5 -1.45849,4.95 -3.02393,10.35 -3.47876,12 -1.07278,3.89179 -6.90853,20.55509 -7.87984,22.5 -1.6895,3.38296 -4.50818,12.98025 -3.97024,13.51819 0.62012,0.62013 21.47018,-2.57638 33.81514,-5.18418 4.125,-0.87137 9.525,-1.95897 12,-2.41687 3.78711,-0.70066 17.56095,-3.66332 32,-6.883 15.25224,-3.401 32.09715,-7.26434 35,-8.02717 1.925,-0.50587 9.8,-2.08823 17.5,-3.51637 7.7,-1.42813 15.575,-2.98919 17.5,-3.46901 1.925,-0.47982 5.975,-1.3624 9,-1.96128 12.55909,-2.48641 26.75665,-5.36691 30.5,-6.18805 2.2,-0.48258 6.25,-1.30575 9,-1.82926 2.75,-0.52351 8.375,-1.65305 12.5,-2.51009 4.125,-0.85704 9.75,-2.00139 12.5,-2.543 2.75,-0.54161 7.025,-1.43707 9.5,-1.98991 2.475,-0.55284 6.75,-1.41233 9.5,-1.90997 2.75,-0.49765 8.6,-1.67956 13,-2.62648 4.4,-0.94692 9.8,-2.06151 12,-2.47688 2.2,-0.41537 9.85,-1.98869 17,-3.49626 7.15,-1.50758 14.8,-3.09301 17,-3.52318 2.2,-0.43018 6.475,-1.26325 9.5,-1.85127 3.025,-0.58803 10.9,-2.23409 17.5,-3.65792 6.6,-1.42383 13.8,-2.95803 16,-3.40933 3.99814,-0.82017 26.22612,-5.46255 34.25,-7.15322 2.3375,-0.49252 6.1625,-1.2891 8.5,-1.77017 2.3375,-0.48108 10.1,-2.10815 17.25,-3.61573 7.15,-1.50757 14.8,-3.10494 17,-3.54969 2.2,-0.44476 9.4,-1.9971 16,-3.44965 6.6,-1.45255 14.025,-3.07865 16.5,-3.61356 2.475,-0.53491 6.3,-1.36154 8.5,-1.83695 2.2,-0.47541 7.375,-1.61251 11.5,-2.52688 4.125,-0.91438 9.3,-2.05873 11.5,-2.543 2.2,-0.48428 6.025,-1.38762 8.5,-2.00744 2.475,-0.61981 6.075,-1.34732 8,-1.61668 1.925,-0.26937 4.4,-0.86709 5.5,-1.32828 1.1,-0.46118 6.05,-1.58895 11,-2.50615 4.95,-0.91719 10.125,-1.90554 11.5,-2.19632 1.375,-0.29078 4.975,-0.90526 8,-1.36551 9.40273,-1.43062 29.30496,-4.9305 33.5,-5.89109 4.00737,-0.91762 8.37968,-1.79972 22.64153,-4.56783 4.20284,-0.81574 10.50284,-2.19847 14,-3.07273 3.49716,-0.87426 7.93347,-1.98003 9.85847,-2.45726 1.925,-0.47724 8.9,-2.02485 15.5,-3.43914 6.6,-1.41429 13.8,-2.99051 16,-3.50272 8.9668,-2.08764 18.3353,-3.83175 24,-4.46801 3.3,-0.37066 8.59394,-1.16051 11.76431,-1.75523 6.4748,-1.21459 6.22956,-0.79638 7.22182,-12.31547 1.25967,-14.62348 5.00908,-51.71781 6.67113,-66 1.43435,-12.32561 2.18853,-18.93641 4.67739,-41 1.17881,-10.45 2.59825,-21.75188 3.15432,-25.1153 0.55606,-3.36341 1.01103,-7.83632 1.01103,-9.9398 0,-2.10348 0.44199,-6.3266 0.9822,-9.3847 0.96086,-5.43937 2.80497,-22.05118 5.00222,-45.0602 0.604,-6.325 1.5296,-14.25188 2.05688,-17.6153 0.52729,-3.36341 0.9587,-8.05155 0.9587,-10.41808 0,-2.36654 0.42313,-7.03965 0.94028,-10.38471 0.51715,-3.34505 1.66567,-17.55691 2.55226,-31.58191 0.88659,-14.025 2.03846,-31.037 2.55972,-37.80446 0.52126,-6.767456 0.95463,-22.067456 0.96305,-33.999998 0.008,-11.932543 0.34592,-22.151602 0.75,-22.709022 1.83733,-2.53457 13.45625,-6.895893 24.73469,-9.284511 2.75,-0.582412 6.30763,-1.342298 7.90587,-1.688634 l 2.9058,-0.629703 -0.5673,57.058169 c -0.5044,50.717489 -0.1441,63.530049 1.5269,54.308159 2.4216,-13.36423 17.7141,-61.02044 25.4307,-79.24999 6.454,-15.246633 15.0121,-31.808465 19.1766,-37.110865 5.7292,-7.294548 10.6001,-10.317706 16.624,-10.317706 6.568,0 10.1122,2.489865 15.2112,10.686319 8.7096,14.000104 13.6809,25.572594 16.802,39.112571 2.3114,10.027261 2.3477,59.983811 0.057,78.629671 -1.5751,12.82217 -2.115,16.27038 -4.6576,29.75 -1.3995,7.41909 -5.8032,25.07901 -6.9939,28.04705 -0.5068,1.26338 -0.9215,3.18199 -0.9215,4.26357 0,1.08159 -0.4221,2.74791 -0.9379,3.70295 -0.5158,0.95504 -2.1229,5.11143 -3.5713,9.23643 -5.8756,16.73388 -13.6613,34.11279 -20.608,46 -2.4105,4.125 -5.0074,8.71137 -5.7707,10.19194 -3.7348,7.24388 -14.2296,14.48906 -25.6121,17.68156 -7.6892,2.15661 -19.8866,5.1265 -21.0547,5.1265 -0.7812,0 -1.4169,-3.45247 -1.8874,-10.25 -1.1043,-15.95586 -2.1134,-46.86775 -1.5579,-47.72612 0.275,-0.42494 2.075,-1.08285 4,-1.46202 10.0967,-1.98876 21.4368,-8.29008 24.831,-13.79781 2.5128,-4.07734 13.9588,-38.52624 17.1992,-51.76405 0.6058,-2.475 1.5219,-6.1875 2.0357,-8.25 5.9885,-24.04055 8.6484,-39.47555 10.8999,-63.24999 1.278,-13.494655 1.3079,-37.5 0.047,-37.5 -2.1713,0 -14.3615,22.6369 -20.4634,38 -2.0752,5.225 -4.1378,10.4 -4.5835,11.5 -0.4457,1.1 -1.5679,4.24999 -2.4938,6.99999 -0.9259,2.75 -2.0609,5.9 -2.5222,7 -0.4613,1.1 -2.4804,6.95 -4.4869,13 -3.5267,10.63374 -4.3616,12.93856 -6.43,17.75 -1.2821,2.98255 -9.3454,27.65526 -11.52,35.25 -0.9449,3.3 -2.0696,7.125 -2.4994,8.5 -0.4298,1.375 -1.3388,4.525 -2.0201,7 -0.6812,2.475 -1.8122,6.525 -2.5132,9 -0.701,2.475 -1.7992,6.75 -2.4404,9.5 -1.58807,6.81033 -2.67041,11.20147 -4.02752,16.33976 -0.63042,2.38687 -1.60769,6.88687 -2.17172,10 -0.56403,3.11313 -1.43386,7.57274 -1.93296,9.91024 -0.49911,2.3375 -1.31493,6.1625 -1.81296,8.5 -0.49802,2.3375 -2.09595,11 -3.55094,19.25 -1.455,8.25 -3.09817,17.475 -3.65151,20.5 -0.55333,3.025 -1.41429,8.50748 -1.91325,12.18328 -0.49897,3.67581 -1.15744,7.72581 -1.46328,9 -0.51956,2.16456 -1.04165,5.73601 -3.62779,24.81672 -0.55909,4.125 -1.39355,9.975 -1.85436,13 -1.32974,8.72919 -3.96794,29.32889 -4.00218,31.25 -0.0227,1.27162 0.76172,1.75 2.86944,1.75 4.53287,0 31.60813,-4.80671 53.59933,-9.51557 4.4,-0.94215 9.8,-2.08696 12,-2.54403 2.2,-0.45707 5.8,-1.26026 8,-1.78486 2.2,-0.52461 6.25,-1.43264 9,-2.01786 2.75,-0.58522 8.15,-1.76454 12,-2.62071 3.85,-0.85618 8.35,-1.7965 10,-2.0896 1.65,-0.2931 4.575,-0.94051 6.5,-1.43867 1.925,-0.49816 8.45,-1.88255 14.5,-3.07641 17.7537,-3.50338 19.5393,-3.84576 39,-7.47815 8.4532,-1.57778 11.1633,-2.11585 21.75,-4.3183 3.9432,-0.82032 23.7059,-5.06312 33.5,-7.19204 2.3375,-0.50809 6.1625,-1.31741 8.5,-1.79848 2.3375,-0.48108 10.10008,-2.10815 17.25008,-3.61573 13.6818,-2.88481 17.5484,-3.66834 26.5,-5.37006 5.0717,-0.96413 13.5903,-2.81513 23.5,-5.10623 2.2,-0.50863 9.4,-2.08096 16,-3.49405 6.6,-1.41309 14.025,-3.03854 16.5,-3.6121 7.7952,-1.80648 12.2499,-2.72031 21,-4.30796 4.675,-0.84824 11.2,-2.05473 14.5,-2.68108 3.3,-0.62635 8.025,-1.51252 10.5,-1.96926 5.5059,-1.01608 29.1848,-5.86897 34,-6.96817 14.046,-3.20638 41.4847,-9.00887 54,-11.41944 14.5977,-2.81168 19.3543,-3.7371 24,-4.66931 2.475,-0.49663 6.975,-1.34505 10,-1.88536 6.0477,-1.08021 18.5203,-3.71495 24,-5.06978 6.0929,-1.50646 11.3446,-2.722 16.5,-3.81911 2.75,-0.58522 8.15,-1.79235 12,-2.68251 3.85,-0.89017 8.8,-1.97793 11,-2.41725 2.2,-0.43932 8.725,-1.75121 14.5,-2.91532 12.4044,-2.50043 12,-2.4727 12,-0.82294 0,0.71481 -3.9375,4.07613 -8.75,7.4696 -10.6415,7.50369 -26.1919,18.7689 -28.2699,20.47953 -0.8359,0.68817 -3.3109,2.57742 -5.5,4.19835 -2.189,1.62092 -4.2051,3.19848 -4.4801,3.50568 -0.275,0.3072 -3.1315,2.51632 -6.3479,4.90916 -3.2163,2.39283 -11.3163,8.90356 -18,14.46827 -6.6836,5.56472 -12.9898,10.80439 -14.0137,11.64371 -2.3531,1.92899 -1.6602,1.31316 -17.6384,15.67577 -14.208,12.7714 -22.0691,21.08623 -33.3316,35.25548 -3.7574,4.72713 -7.5359,9.46449 -8.3966,10.52745 -2.8266,3.49058 -11.9406,18.95134 -14.5824,24.7371 -4.2005,9.1992 -6.6143,17.56803 -8.2558,28.62248 -1.3973,9.41065 -1.3938,11.32712 0.038,20.33025 3.9899,25.0966 14.6376,40.43654 46.9566,67.64995 l 13.9278,11.72756 -293.42778,0.76295 c -161.38534,0.41963 -435.00345,0.49133 -608.04027,0.15935 l -314.61277,-0.60361 -2.00825,3.34066 c -1.10453,1.83736 -3.94095,6.94065 -6.30315,11.34065 -2.36221,4.4 -4.77866,8.7875 -5.3699,9.75 -0.88372,1.43865 -2.54446,1.75 -9.33442,1.75 H 0 V 570.7984 Z m 1164,-36.51498 c 0,-1.49703 -1.3663,-5.89951 -3.9672,-12.78343 -3.7872,-10.02354 -8.0328,-31.85715 -8.0328,-41.30975 0,-11.72793 4.5258,-35.17929 8.6537,-44.84138 0.7405,-1.73312 1.3463,-3.42552 1.3463,-3.7609 0,-1.36335 4.7061,-10.59444 9.4764,-18.58797 9.929,-16.63796 20.7977,-29.91986 44.0156,-53.78839 10.0112,-10.29165 12.4679,-13.87686 8.8499,-12.91509 -1.013,0.2693 -4.0919,1.01616 -6.8419,1.6597 -2.75,0.64353 -6.575,1.57255 -8.5,2.06448 -3.1591,0.8073 -7.4878,1.68453 -25,5.06636 -3.025,0.58417 -7.075,1.45356 -9,1.93198 -23.5685,5.85744 -40.9171,9.51869 -54.5,11.5017 -10.5007,1.53302 -13.2355,2.03969 -23.5,4.35377 -2.475,0.55798 -7.875,1.73945 -12,2.62549 -11.5828,2.48795 -15.1335,3.27335 -20,4.42392 -7.9385,1.87685 -29.5423,6.20834 -40,8.01985 -3.025,0.524 -9.55,1.65365 -14.5,2.51033 -4.95,0.85668 -10.79998,2.03489 -12.99998,2.61824 -7.3816,1.95729 -11.9471,2.91823 -21,4.42005 -4.95,0.82118 -10.575,1.91339 -12.5,2.42714 -13.4028,3.57701 -27.5481,6.96979 -33.5,8.03508 -3.85,0.68907 -8.0337,1.65618 -9.2971,2.14912 -1.2633,0.49295 -3.5935,0.89627 -5.178,0.89627 -1.5845,0 -8.8758,1.40837 -16.2029,3.1297 -7.3271,1.72134 -14.897,3.47317 -16.822,3.89295 -7.3484,1.60248 -29.7186,6.26244 -34.5,7.18674 -2.75,0.5316 -6.8,1.33442 -9,1.78404 -2.2,0.44962 -8.05,1.57489 -13,2.50061 -15.3515,2.87093 -17.9056,3.36194 -21,4.03711 -1.65,0.36002 -9.75,2.01404 -18.00002,3.6756 -8.25,1.66157 -16.575,3.37439 -18.5,3.80628 -1.925,0.43189 -5.75,1.25879 -8.5,1.83755 -2.75,0.57875 -12.15876,2.87414 -20.90836,5.10085 -8.7496,2.22671 -17.38554,4.04857 -19.19098,4.04857 -1.80545,0 -3.56074,0.45 -3.90066,1 -0.33992,0.55 -2.50398,1.00591 -4.80902,1.01314 -2.30504,0.007 -8.46598,0.92234 -13.69098,2.03359 -5.225,1.11125 -11.75,2.45418 -14.5,2.98428 -5.30311,1.02225 -8.48681,1.71596 -20.5,4.46684 -4.125,0.94458 -9.525,2.16322 -12,2.70809 -2.475,0.54486 -6.075,1.34518 -8,1.77848 -7.22059,1.62527 -33.76144,6.88038 -40.5,8.01903 -3.85,0.65056 -11.725,2.2176 -17.5,3.48232 -5.775,1.26471 -13.2,2.81983 -16.5,3.4558 -8.93889,1.72271 -28.64109,6.16001 -31.5,7.09439 -3.24742,1.06135 -9.91243,2.50807 -23.5,5.10095 -6.05,1.15451 -12.8,2.47644 -15,2.93763 -17.72817,3.71636 -30.91354,6.08546 -38.5,6.91754 -4.125,0.45243 -10.2,1.5747 -13.5,2.49392 -21.47105,5.98082 -24.04018,6.58211 -47,11.00007 -4.95,0.95248 -10.8,2.0935 -13,2.5356 -2.2,0.44209 -5.8,1.09136 -8,1.44281 -2.2,0.35146 -5.575,1.04223 -7.5,1.53505 -1.925,0.49282 -7.1,1.65907 -11.5,2.59167 -7.48428,1.58632 -15.01209,3.43746 -20.25,4.97961 -3.8037,1.1199 -2.50003,2.42529 2.5,2.50331 2.6125,0.0408 6.775,0.43445 9.25,0.87484 2.475,0.44039 186.4125,0.85703 408.75,0.92587 381.3826,0.11809 404.25,0.0281 404.25,-1.5914 z M 99.96663,395.80901 c -0.0185,-53.51996 -0.44158,-101.82925 -0.94013,-107.35397 -0.49854,-5.52472 -1.85324,-13.62472 -3.01043,-18 -3.49545,-13.21612 -7.15521,-24.88295 -8.2098,-26.17175 -0.54757,-0.66919 -4.26279,-3.71918 -8.25603,-6.77775 l -7.26045,-5.56106 -11.99189,6.02776 c -6.59553,3.31526 -12.62317,6.02806 -13.39474,6.02843 -1.16699,5.6e-4 -1.35514,-3.40418 -1.11905,-20.25 0.1561,-11.13787 0.7186,-22.41033 1.25,-25.0499 0.53141,-2.63957 0.96619,-6.26745 0.96619,-8.06194 0,-2.45192 0.73162,-3.80363 2.94406,-5.43936 12.84229,-9.49471 29.07955,-13.40479 40.93897,-9.85846 3.5719,1.06811 5.9314,3.04644 12.74999,10.69027 4.60184,5.15879 8.36698,10.09716 8.36698,10.97416 0,0.877 0.36691,2.02205 0.81537,2.54455 0.88119,1.0267 4.82483,12.69989 8.09121,23.95 2.65503,9.1445 6.59406,28.66333 8.07226,40 0.64544,4.95 1.57134,11.925 2.05755,15.5 0.48622,3.575 1.13951,11.225 1.45175,17 0.85254,15.76801 2.68251,35.33502 3.43827,36.76376 0.36768,0.69507 1.68189,-3.12993 2.92049,-8.5 4.79088,-20.77146 7.45905,-31.97516 8.87437,-37.26376 0.80954,-3.025 1.83592,-7.075 2.28084,-9 0.83352,-3.60626 7.49438,-29.16569 8.99081,-34.5 0.46287,-1.65 2.0251,-7.05 3.47163,-12 1.44652,-4.95 3.30186,-11.475 4.12298,-14.5 2.31598,-8.53208 4.58785,-16.30169 5.40948,-18.5 0.41113,-1.1 2.44616,-7.4 4.52228,-14 2.07613,-6.6 4.95686,-15.6 6.40163,-20 l 2.62687,-8 4.4761,-0.85227 c 4.27577,-0.81413 20.57412,-4.73107 27.97611,-6.72343 4.07254,-1.09619 15.83007,-3.80723 21.25,-4.89981 3.62835,-0.73142 3.75,-0.6641 3.75,2.0754 0,2.45833 -1.32537,13.51434 -3.46448,28.90011 -0.34411,2.475 -1.034,7.875 -1.53311,12 -1.86393,15.40505 -4.9771,40.76639 -5.95349,48.5 -0.55552,4.4 -1.45128,11.6 -1.99058,16 -0.53931,4.4 -1.44797,11.6 -2.01925,16 -0.57128,4.4 -1.51887,12.5 -2.10576,18 -0.58688,5.5 -1.51581,14.05 -2.06428,19 -2.18772,19.74446 -2.7656,25.75868 -4.27577,44.5 -1.94994,24.19893 -3.44042,39.55289 -4.65959,48 -0.51597,3.575 -1.21977,14.04053 -1.56399,23.25673 -0.58776,15.7368 -0.27908,19.47479 2.29059,27.73811 0.31863,1.02463 2.79453,-1.01999 7.87107,-6.5 7.00864,-7.56566 7.4079,-7.83998 7.43743,-5.11014 0.0379,3.50805 -1.60951,13.81841 -3.61363,22.6153 -2.97476,13.0574 -7.98727,18.27243 -27.83044,28.95489 l -7.97527,4.29344 -3.86136,-4.37416 c -2.12374,-2.40579 -5.62237,-6.55208 -7.77472,-9.21397 l -3.91337,-4.8398 0.0227,-10.6602 c 0.0221,-10.37424 2.02257,-41.47273 3.96643,-61.6602 2.53913,-26.36956 3.09484,-33.19859 3.98741,-49 0.52814,-9.35 1.44901,-20.6 2.04637,-25 1.58711,-11.69016 2.98039,-21.2567 4.00511,-27.5 3.80874,-23.20538 6.01007,-52.5127 3.89128,-51.80644 -1.17829,0.39277 -2.71874,4.19391 -10.25565,25.30644 -3.16489,8.86554 -12.08534,37.09958 -14.2176,45 -1.92474,7.1315 -2.77736,10.17426 -4.90368,17.5 -0.87802,3.025 -2.00037,7.3 -2.49412,9.5 -0.49374,2.2 -1.85986,7.825 -3.03582,12.5 -4.4635,17.74455 -9.61272,39.95023 -12.1741,52.5 -0.56127,2.75 -1.42787,6.575 -1.92579,8.5 -1.16795,4.51542 -7.04485,33.57865 -7.5829,37.5 -0.2264,1.65 -0.8184,4.575 -1.31556,6.5 -0.49716,1.925 -1.66922,7.41449 -2.60457,12.19887 -1.14846,5.87442 -2.22159,8.91366 -3.30508,9.36038 -1.6187,0.6674 -18.5598,4.93768 -25.1815,6.34741 -1.96739,0.41885 -4.10489,1.08776 -4.75,1.48646 -0.8941,0.55258 -1.18094,-22.40854 -1.20661,-96.5841 z m 172.49924,75.99261 c -7.49264,-7.88804 -13.46557,-15.3045 -13.46557,-16.71993 0,-0.59493 -0.38417,-1.0817 -0.85372,-1.0817 -1.35137,0 -9.78147,-17.92916 -11.28454,-24 -2.82581,-11.41331 -1.37197,-73.9748 2.21928,-95.5 2.86623,-17.17955 7.8072,-37.88443 10.97736,-46 0.42969,-1.1 1.94089,-5.15 3.35821,-9 2.39298,-6.50028 10.95296,-24.0824 15.09255,-31 2.11847,-3.54013 6.39504,-6.94831 24.32473,-19.38542 l 13.33387,-9.24917 26.52257,-0.0263 c 14.58742,-0.0144 26.87186,0.35334 27.29876,0.81729 0.4269,0.46396 0.4124,6.46856 -0.0322,13.34356 -1.37387,21.24362 -2.85809,41.01083 -3.94194,52.5 -0.57074,6.05 -1.50662,16.175 -2.07974,22.5 -0.57311,6.325 -1.45508,15.55 -1.95992,20.5 -0.84758,8.31052 -2.4486,25.77685 -4.99564,54.5 -0.56087,6.325 -1.46329,16 -2.00537,21.5 -1.12887,11.45364 -1.26598,19.5 -0.33229,19.5 0.35306,0 3.50306,-1.80697 7,-4.01548 l 6.35803,-4.01544 -0.0432,12.76548 -0.0433,12.76548 -8.45675,4.91768 c -4.65122,2.70473 -8.45676,5.29223 -8.45676,5.75 0,0.45778 -0.43788,0.83232 -0.97306,0.83232 -0.53519,0 -4.36501,2.09327 -8.51072,4.6517 l -7.53766,4.65171 -4.55848,-2.34451 c -7.55263,-3.88446 -8.38551,-5.93469 -10.09366,-24.84663 -0.31732,-3.51325 -0.0864,-10.26325 0.51325,-15 2.81613,-22.24662 3.44396,-30.22864 2.45542,-31.21718 -1.22737,-1.22737 -1.91236,0.16969 -10.83817,22.10491 -6.75902,16.61034 -9.24577,22.35507 -14.56315,33.64297 -1.59158,3.37863 -2.89377,6.64113 -2.89377,7.25 0,0.60887 -0.45,1.10703 -1,1.10703 -0.55,0 -1,0.4946 -1,1.09912 0,1.08239 -9.55104,17.6904 -12.19327,21.20251 -1.25354,1.66623 -1.80524,1.32805 -7.34116,-4.5 z m 15.26823,-65.19784 c 3.88788,-5.25668 8.60797,-14.122 11.23612,-21.10379 0.41407,-1.1 1.49024,-3.70277 2.39147,-5.78393 0.90124,-2.08116 1.63861,-4.23855 1.63861,-4.79419 0,-0.55565 2.025,-3.96771 4.5,-7.58234 2.475,-3.61464 4.5,-7.27531 4.5,-8.13481 0,-0.8595 0.44843,-2.94468 0.99651,-4.63373 0.95804,-2.95246 8.28299,-27.88315 10.01049,-34.071 0.46065,-1.65 1.81012,-6.6 2.99884,-11 1.18872,-4.4 2.51857,-8.9 2.95523,-10 0.43667,-1.1 1.2673,-4.25 1.84585,-7 0.57855,-2.75 1.81237,-8.28381 2.74182,-12.29734 0.92945,-4.01354 1.41226,-7.57499 1.07291,-7.91434 -0.33934,-0.33934 -5.90553,1.54896 -12.36932,4.19622 -6.46378,2.64727 -12.95871,5.28313 -14.43317,5.85747 -2.1009,0.81835 -3.88559,3.56248 -8.25,12.6851 -3.06304,6.40247 -5.56916,12.30056 -5.56916,13.10687 0,0.80631 -0.37175,1.89352 -0.82612,2.41602 -0.45437,0.5225 -1.32746,2.75 -1.94022,4.95 -0.61275,2.2 -1.75193,6.25 -2.5315,9 -0.77957,2.75 -1.96802,7.7 -2.64101,11 -0.67298,3.3 -1.62031,7.8 -2.10519,10 -0.80201,3.63898 -2.50433,16.73849 -4.9382,38 -2.07231,18.10307 -3.1111,31.53996 -2.5131,32.50754 1.03298,1.6714 6.30041,-2.73976 11.22914,-9.40375 z m 88.58256,25.19399 c 0.58674,-18.61205 0.83284,-20.92267 6.74188,-63.29778 1.81033,-12.98232 2.94919,-24.92315 3.86553,-40.52948 0.99245,-16.90258 2.58407,-35.88947 4.06316,-48.47052 1.0203,-8.67861 2.13056,-19.43025 4.49197,-43.5 0.83636,-8.525 1.95418,-19.1 2.48405,-23.5 0.52987,-4.4 1.45819,-14.975 2.06294,-23.5 0.60475,-8.525 1.52133,-20.47383 2.03683,-26.55295 0.5155,-6.07913 0.93728,-19.64348 0.93728,-30.14301 0,-20.50529 -0.0521,-20.30403 5.26079,-20.30403 1.15347,0 3.47916,-0.44094 5.16821,-0.97987 1.68905,-0.53893 7.121,-1.88866 12.071,-2.99941 4.95,-1.11075 10.0125,-2.29729 11.25,-2.63676 l 2.25,-0.61722 -0.0261,13.86662 c -0.0553,29.36573 -5.03537,88.80236 -11.9287,142.36663 -0.53086,4.125 -1.46071,11.325 -2.06633,16 -0.60563,4.675 -1.97363,13.60722 -3.04,19.84937 -2.15083,12.59013 -2.28129,14.15063 -1.18298,14.15063 0.74683,0 1.17081,-0.84354 5.20194,-10.34965 2.19371,-5.17317 11.97014,-34.23468 16.53439,-49.15035 1.51472,-4.95 3.1191,-9.9 3.56528,-11 0.44618,-1.1 1.79231,-4.925 2.9914,-8.5 2.4754,-7.38022 3.57467,-10.00095 9.31957,-22.21844 3.65142,-7.76536 4.60672,-8.99447 8.73863,-11.24334 8.11535,-4.41692 27.61184,-9.15371 34.51495,-8.38561 l 3.12206,0.34739 -3.19776,6.55941 c -1.75876,3.60767 -6.02971,13.50767 -9.49099,22 -7.51657,18.44207 -8.26855,19.96589 -11.931,24.17709 -1.56103,1.79493 -3.39826,5.0635 -4.08272,7.2635 -2.43424,7.82412 -8.17467,24.03796 -9.34874,26.40553 -1.4779,2.98024 -1.46378,11.1177 0.0297,17.09447 1.74582,6.98685 2.66202,13.35239 7.34046,51 0.58096,4.675 1.46191,10.975 1.95768,14 0.49576,3.025 1.41703,8.65 2.04726,12.5 1.25163,7.64609 4.47922,20.95828 5.47014,22.56163 0.38821,0.62814 3.37421,0.75787 7.93381,0.34469 l 7.31131,-0.66254 -0.54268,4.87811 c -1.55505,13.97844 -12.45668,26.84624 -28.12388,33.19622 -8.44037,3.42091 -9.35504,3.13158 -12.86044,-4.06811 -5.61021,-11.52271 -7.75056,-17.65105 -11.08883,-31.75 -2.34532,-9.90527 -6.3455,-32.14427 -7.86943,-43.75 -1.04126,-7.92991 -2.88597,-5.44678 -7.24328,9.75 -1.81354,6.325 -3.85821,13.3 -4.54371,15.5 -2.94005,9.43554 -5.87826,19.21472 -6.61002,22 -0.43349,1.65 -1.23244,4.575 -1.77544,6.5 -1.94085,6.88062 -6.32246,23.56257 -7.0917,27 -1.27091,5.67924 -2.10743,6.9832 -4.8941,7.62897 -1.45184,0.33644 -5.5647,1.4878 -9.1397,2.55857 -11.21908,3.36029 -15.40965,4.55664 -18.36447,5.24282 l -2.86447,0.6652 0.5453,-17.29778 z M 535.5003,413.08276 c -8.81262,-5.10861 -15.96844,-13.04117 -21.39197,-23.71399 -1.70942,-3.3639 -3.10803,-6.75802 -3.10803,-7.54248 0,-0.78447 -0.37717,-1.8538 -0.83816,-2.3763 -0.76229,-0.86401 -2.24647,-7.40518 -5.09385,-22.45 -0.57251,-3.025 -1.12137,-18.1 -1.21968,-33.5 -0.18383,-28.79609 0.10606,-31.89864 4.54814,-48.6758 2.58826,-9.77556 9.66014,-29.91174 12.59307,-35.85702 0.41589,-0.84306 1.07301,-2.9754 1.46026,-4.73854 0.38725,-1.76314 1.11947,-3.46242 1.62716,-3.77619 0.50768,-0.31377 0.92306,-1.2781 0.92306,-2.14296 0,-2.44796 8.73237,-19.09357 13.80208,-26.30949 9.90824,-14.10278 26.52297,-28.63381 41.14808,-35.9876 l 6.45016,-3.24327 3.04984,3.42225 c 1.67741,1.88224 4.5169,5.07721 6.30998,7.09993 3.74334,4.22276 10.94932,15.18007 14.18556,21.57035 9.18032,18.12749 9.27771,41.28853 0.28862,68.63834 -5.39758,16.42245 -15.17939,32.3508 -28.17072,45.87223 -11.65963,12.13539 -20.3114,18.70879 -34.5636,26.26055 -4.4,2.33142 -8.15377,4.98575 -8.34171,5.89852 -0.51677,2.50988 8.65565,10.75016 13.6009,12.2187 2.31512,0.6875 9.19283,1.25 15.2838,1.25 h 11.07449 l 4.6888,-4.25 c 2.57884,-2.3375 9.07741,-8.49673 14.44126,-13.68718 11.0458,-10.68872 10.45363,-11.02213 8.76889,4.93718 -3.06908,29.07291 -4.24766,38.85093 -5.06244,42 -0.65996,2.55071 -4.09904,6.65586 -12.67978,15.13556 -10.24191,10.1213 -12.29477,11.70564 -15.77421,12.1741 -2.2,0.2962 -9.175,1.46804 -15.5,2.60409 -14.92555,2.68081 -16.54516,2.621 -22.5,-0.83098 z M 549.87653,284.8245 c 15.64173,-8.41185 16.23634,-8.909 23.25725,-19.44505 13.44731,-20.17996 18.24433,-31.94673 17.68469,-43.37946 l -0.31817,-6.5 -3,0.34736 c -4.30813,0.49882 -13.2913,4.9139 -18.33533,9.01152 -7.97585,6.47934 -18.4943,24.07537 -22.23451,37.19553 -0.69702,2.44507 -1.64146,4.87309 -2.09874,5.39559 -0.45728,0.5225 -0.83142,1.76611 -0.83142,2.76357 0,0.99746 -0.4372,2.59496 -0.97155,3.55 -0.83248,1.48787 -5.02845,14.70698 -5.02845,15.84177 0,1.17056 3.21997,-0.12565 11.87623,-4.78083 z m 71.67299,111.44316 c -0.30564,-0.79649 -0.34141,-1.7949 -0.0795,-2.21869 0.26192,-0.4238 0.94715,-6.12069 1.52273,-12.65976 0.57558,-6.53907 1.4937,-16.16422 2.04027,-21.38922 0.54657,-5.225 1.42316,-13.775 1.94797,-19 0.52482,-5.225 1.4114,-14 1.97017,-19.5 0.55877,-5.5 1.70258,-17.2 2.54181,-26 0.83923,-8.8 1.95554,-20.05 2.48069,-25 0.52515,-4.95 1.42887,-14.85 2.00826,-22 0.57939,-7.15 1.49481,-17.275 2.03427,-22.5 1.00165,-9.70177 2.79634,-34.86011 3.87991,-54.38942 l 0.6042,-10.88942 5.5,-1.31984 c 14.62666,-3.50997 28.73756,-5.99709 29.52986,-5.20479 2.12986,2.12986 1.53109,22.33327 -1.55013,52.30347 -0.5089,4.95 -1.22408,13.20735 -1.58929,18.34967 -0.62202,8.75858 -0.54662,9.32706 1.19271,8.99209 1.32507,-0.25518 2.08157,-1.64384 2.64197,-4.84967 6.4703,-37.01379 15.83579,-59.08283 32.47457,-76.52384 6.23808,-6.53883 17.71024,-15.46825 19.873,-15.46825 1.35719,0 -1.45258,29.23076 -4.51782,47 -3.43936,19.93804 -2.30116,17.46532 -13.11864,28.5 -8.75991,8.9358 -10.32984,11.11741 -14.75223,20.5 -6.35803,13.48925 -9.184,19.8243 -9.184,20.58797 0,0.33538 -0.63763,2.02778 -1.41695,3.7609 -6.04942,13.45325 -16.57816,49.32128 -20.59222,70.15113 -1.05989,5.5 -2.36076,12.25 -2.89082,15 -1.59068,8.25265 -2.97606,17.45472 -4.14016,27.5 -2.06748,17.84083 -1.44518,16.53307 -10.45985,21.98134 -7.83524,4.73544 -8.19972,4.84428 -17.69754,5.28475 -7.84083,0.36362 -9.80393,0.17246 -10.25324,-0.99842 z m 285.5405,-59.18382 c -5.6239,-5.25351 -6.0897,-7.71575 -6.0897,-32.18643 0,-12.19176 0.4357,-24.91871 0.9683,-28.28212 1.7306,-10.9296 4.2519,-31.74623 5.093,-42.04879 0.452,-5.53658 1.3041,-14.79151 1.8935,-20.56651 0.5894,-5.775 1.5039,-15.9 2.0323,-22.5 0.8672,-10.83292 2.1658,-23.61659 5.0792,-50 0.5466,-4.95 1.4093,-13.05 1.917,-18 0.5078,-4.95 1.1571,-10.57499 1.443,-12.49999 2.204,-14.843876 5.5737,-68.180661 5.5737,-88.224279 V 7.0906264 l 3.75,-0.5966554 c 2.0625,-0.32816 5.55,-1.00197 7.75,-1.497355 4.6899,-1.056041 9.4399,-1.897013 15,-2.655675 2.2,-0.300186 4.4275,-0.9497 4.95,-1.443366 C 956.97282,0.403909 959.16782,0 961.32812,0 h 3.9278 l -0.6519,4.076871 c -0.3586,2.242279 -1.3341,11.579779 -2.1679,20.75 -0.8337,9.170221 -1.9455,21.398129 -2.4705,27.173129 -1.6161,17.775822 -1.9632,21.227142 -2.9668,29.5 -0.5337,4.4 -1.6756,16.55 -2.5374,27 -0.8618,10.44999 -1.9931,22.28087 -2.514,26.29084 -0.5209,4.00996 -0.9471,9.38288 -0.9471,11.9398 0,2.55693 -0.4322,7.15105 -0.9604,10.20915 -0.5282,3.05811 -1.4408,10.7352 -2.028,17.0602 -3.3249,35.81389 -4.8346,51.38293 -5.9152,61 -6.4158,57.10115 -7.6499,71 -6.3039,71 0.5601,0 2.9733,-1.60269 5.3629,-3.56152 2.3895,-1.95884 5.1321,-4.20444 6.0946,-4.99022 1.642,-1.34054 1.7507,-0.88944 1.761,7.31153 0.01,4.80711 0.2808,10.37177 0.6107,12.36589 l 0.5996,3.62568 -9.8606,7.01877 c -17.9937,12.80782 -26.8704,15.29272 -33.271,9.31372 z m 86.7436,-11.85302 c -0.1833,-0.42304 -2.7592,-2.78554 -5.7241,-5.25 -7.0725,-5.87878 -16.4532,-17.05387 -19.1737,-22.84142 -4.5952,-9.77589 -4.9367,-13.24457 -4.9156,-49.9382 0.024,-42.15075 1.164,-55.17426 6.9759,-79.70121 1.0427,-4.4 2.6256,-11.15 3.5177,-15 1.7014,-7.34286 4.7376,-16.92374 6.9717,-22 4.3894,-9.97331 6.3262,-13.724 10.315,-19.97507 8.92268,-13.98362 20.52638,-24.076139 36.19978,-31.485455 1.7067,-0.80683 11.2802,-3.243037 27.2644,-6.93809 C 1057.885,71.495619 1064.3705,71 1069.6768,71 c 8.5186,0 10.1533,0.296271 13.9673,2.531375 5.7152,3.349332 6.621,5.302982 5.9295,12.78777 -0.314,3.39947 -1.2501,13.830855 -2.0802,23.180855 -0.8301,9.34999 -1.9426,20.59999 -2.4723,24.99999 -0.5298,4.4 -1.4387,12.95 -2.0199,19 -0.5811,6.05 -1.4947,14.6 -2.0301,19 -0.5353,4.4 -1.4572,13.4 -2.0486,20 -0.5914,6.6 -1.4817,16.05 -1.9783,21 -1.1183,11.14497 -2.8861,34.2713 -3.7747,49.37815 -0.5007,8.51282 -0.3638,11.49514 0.5437,11.84276 0.6671,0.25554 4.0709,-0.25213 7.5639,-1.12815 10.1971,-2.55732 9.9706,-2.77604 6.7002,6.47232 -3.0849,8.7235 -6.9645,15.40272 -12.1735,20.95804 -5.7535,6.13605 -7.5681,6.87994 -25.6216,10.50416 -4.575,0.91842 -8.5726,1.41531 -8.8837,1.10421 -0.9874,-0.98737 -2.0893,-17.36949 -2.8169,-41.88149 -0.3878,-13.0625 -0.9973,-23.75 -1.3545,-23.75 -0.3572,0 -3.3098,6.6375 -6.5615,14.75 -3.2517,8.1125 -8.0841,19.41317 -10.7387,25.11259 -2.6546,5.69943 -4.8266,10.50075 -4.8266,10.6696 0,1.13206 -12.1081,19.85152 -15.34108,23.71781 -3.8944,4.65716 -5.1582,5.5208 -5.8256,3.98083 z m 14.35948,-67.23083 c 2.1852,-4.675 5.2445,-11.2 6.7985,-14.5 10.233,-21.73104 17.9978,-41.80099 25.9214,-67 0.5188,-1.65 2.1005,-7.95 3.515,-14 1.4144,-6.05 3.0218,-12.91896 3.572,-15.26435 0.5501,-2.34539 1.0003,-5.79856 1.0003,-7.67371 0,-1.87515 0.5297,-5.70402 1.177,-8.5086 1.4072,-6.09604 0.4051,-7.92425 -3.3196,-6.05662 -6.918,3.46871 -18.0115,11.99685 -22.8002,17.52756 -15.0326,17.36201 -20.7787,36.76274 -26.50088,89.47572 -0.3284,3.025 -1.1063,9.85419 -1.7287,15.17598 -1.2051,10.30505 -0.8819,12.09931 3.5493,19.69863 1.87008,3.20725 2.03898,3.28164 3.40528,1.5 0.7906,-1.03104 3.2254,-5.69961 5.4106,-10.37461 z m 88.3884,35.25 c 0.2987,-2.6125 0.7434,-5.65 0.9884,-6.75 1.0841,-4.86796 4.4333,-41.59002 4.4607,-48.90939 0.029,-7.83464 1.9545,-29.76091 3.8712,-44.09061 0.515,-3.85 1.4399,-11.725 2.0553,-17.5 0.6154,-5.775 1.5325,-13.875 2.0379,-18 0.858,-7.00179 1.4989,-14.31901 4.0291,-45.99999 0.5491,-6.875 1.4767,-20.6 2.0614,-30.5 0.5848,-9.9 1.3673,-18.272672 1.739,-18.605938 0.3717,-0.333267 5.8508,-1.618896 12.1758,-2.856956 17.869,-3.497683 20.462,-3.891206 21.0225,-3.190401 0.2873,0.359312 0.2291,8.078295 -0.1295,17.153295 -2.1165,53.56845 -2.1755,56.67272 -1.1123,58.567 0.8869,1.58044 1.1802,1.65941 1.6077,0.43299 0.2876,-0.825 2.1398,-6.45 4.1159,-12.5 1.9761,-6.04999 3.9849,-11.89999 4.4641,-12.99999 0.4792,-1.1 2.0764,-5.375 3.5494,-9.5 1.4729,-4.125 3.5453,-9.431637 4.6053,-11.792528 1.0599,-2.36089 2.6739,-6.18589 3.5867,-8.5 0.9127,-2.314109 2.4023,-5.557472 3.3102,-7.207472 2.9221,-5.310398 6.645,-11.895344 9.046,-16 2.9664,-5.071265 9.8231,-14.5 10.5445,-14.5 0.8742,0 12.2345,9.86099 20.2782,17.601865 l 7.3887,7.110536 -0.1817,16.393799 c -0.231,20.85068 -1.9699,41.96615 -7.0323,85.39379 -3.9693,34.05021 -5.7834,53.00797 -6.7303,70.33274 l -0.6194,11.33273 4.8932,-0.71903 c 2.6912,-0.39547 5.9349,-1.1077 7.2082,-1.58274 1.2733,-0.47503 3.3687,-0.8637 4.6564,-0.8637 2.8773,0 2.6295,1.47788 -1.9284,11.5 -7.5316,16.56086 -23.7855,27.61078 -41.0392,27.89962 l -5.996,0.10038 -1.3282,-17 c -1.3527,-17.31296 -0.5194,-47.95514 1.8084,-66.5 0.5178,-4.125 1.6439,-14.025 2.5023,-22 0.8584,-7.975 1.9816,-17.65 2.496,-21.5 1.1982,-8.96929 2.7584,-25.37325 3.5666,-37.5 l 0.6331,-9.49999 -1.9599,2.5 c -3.8019,4.8496 -14.9076,28.18892 -18.3197,38.49999 -0.728,2.2 -1.594,4.45 -1.9244,5 -0.3304,0.55 -2.3326,6.4 -4.4493,13 -2.1167,6.6 -4.1899,12.9 -4.6072,14 -0.4173,1.1 -1.0544,3.125 -1.4159,4.5 -0.3615,1.375 -1.7836,6.775 -3.1601,12 -1.3766,5.225 -2.8806,11.075 -3.3423,13 -0.4618,1.925 -1.7593,7.325 -2.8836,12 -1.1242,4.675 -2.5339,10.75 -3.1327,13.5 -1.9555,8.98042 -2.8346,12.92912 -3.8957,17.5 -1.8766,8.08372 -4.1921,18.39972 -5.2746,23.5 -2.0294,9.56163 -3.3357,12.83291 -5.8736,14.709 -2.9045,2.14711 -12.2807,3.74133 -22.178,3.77089 l -6.7308,0.0201 0.5429,-4.75 z m 162.511,-36.62522 c -8.1315,-11.00718 -14.164,-24.4603 -18.1309,-40.43379 -1.8193,-7.32563 -3.9614,-27.16122 -3.9583,-36.65298 0,-10.04987 2.1843,-34.21773 4.3352,-48.03801 1.1824,-7.59753 7.5136,-29.15352 10.5735,-35.99999 0.4916,-1.1 2.1476,-5.15 3.6801,-9 12.7045,-31.917663 31.2534,-54.700182 52.9082,-64.98411 11.6443,-5.529899 12.418,-5.501526 18.5092,0.678779 12.5737,12.757529 19.1335,27.20558 22.0184,48.496133 1.6579,12.234793 -0.3809,29.073398 -5.2255,43.158118 -2.2992,6.68447 -12.2856,25.52251 -17.8783,33.72509 -3.6007,5.28109 -17.0253,19.05606 -23.4238,24.03514 -2.75,2.13996 -5.225,4.1184 -5.5,4.39653 -0.275,0.27813 -2.3,1.84553 -4.5,3.48311 -4.7036,3.50116 -5.1042,3.81964 -13.25,10.53319 -3.4375,2.83311 -6.25,5.53002 -6.25,5.99313 0,1.394 2.9632,3.91941 7.3543,6.26778 3.4607,1.85074 5.7155,2.21263 13.6457,2.19004 8.3015,-0.0237 10.32,-0.39427 16,-2.93787 7.8541,-3.51721 18.444,-10.60884 26.2958,-17.60934 3.1877,-2.84207 6.073,-4.89026 6.4117,-4.55153 0.3388,0.33872 0.1015,2.3056 -0.5272,4.37083 -1.4983,4.92141 -3.1739,19.98169 -3.1775,28.55756 0,7.84536 -2.3618,19.28659 -5.2514,25.47483 -2.6041,5.57661 -12.3716,14.34812 -20.1604,18.10458 -9.8222,4.73715 -17.7492,6.118 -35.1215,6.118 h -15.4064 z m 16.9078,-115.62478 c 0,-0.55 0.474,-1 1.0532,-1 0.5793,0 4.4387,-2.50369 8.5766,-5.56376 17.0564,-12.61381 31.0501,-30.42593 37.66,-47.93623 2.4945,-6.608301 5.5139,-18.362964 4.8797,-18.997135 -1.1089,-1.108978 -6.9954,-0.394055 -12.0911,1.468494 -13.1044,4.78982 -24.0565,15.881865 -31.1683,31.566661 -7.3068,16.1147 -13.3652,41.46197 -9.9101,41.46197 0.55,0 1,-0.45 1,-1 z"
       id="path2987"
       inkscape:connector-curvature="0"
       transform="matrix(0.02110487,0,0,0.02110487,83.711984,276.74266)" />
  </g>
</svg>
